<svg width="1000" height="1000" viewBox="0 0 1000 1000" fill="none" xmlns="http://www.w3.org/2000/svg">
<rect width="1000" height="1000" fill="#F3FFE5"/>
<ellipse cx="413.453" cy="363.994" rx="200.91" ry="199.662" fill="#34C733"/>
<path d="M428.504 637.219L210.267 857.676L196.465 844.013L414.701 623.555L428.504 637.219ZM352.239 642.235L151.802 844.711L138 831.048L338.437 628.572L352.239 642.235ZM318.613 145.615C346.127 141.23 380.079 140.379 407.214 145.615C439.317 151.81 470.128 167.712 494.566 189.291C515.338 207.632 535.601 232.77 541.986 260.421C546.914 281.76 547.788 302.838 545.067 323.908L615.074 254.761L615.15 254.838C633.573 237.621 650.476 232.753 678.336 232.753C682.321 232.753 686.255 232.974 690.126 233.402L742.416 182.312C741.916 180.565 741.648 178.719 741.648 176.811C741.649 165.785 750.588 156.846 761.615 156.846C772.642 156.846 781.581 165.785 781.581 176.811C781.581 187.838 772.642 196.778 761.615 196.778C759.95 196.778 758.332 196.573 756.785 196.188L713.317 238.658C743.443 249.178 767.37 272.904 778.166 302.899L822.308 259.769C821.792 257.996 821.515 256.12 821.515 254.18C821.515 243.154 830.454 234.215 841.48 234.215C852.507 234.215 861.446 243.154 861.446 254.18C861.446 265.207 852.507 274.147 841.48 274.147C839.848 274.147 838.262 273.949 836.743 273.58L783.579 325.524C784.124 329.881 784.406 334.319 784.406 338.823C784.406 361.951 775.672 386.243 765.688 397.474C764.887 398.377 763.878 399.439 762.684 400.632L762.597 400.555L317.352 839.053L292.737 814.132L496.636 612.594C480.486 613.974 460.299 614.296 447.476 614.607C418.125 615.32 387.939 612.542 359.794 603.59C348.346 599.948 336.848 595.937 325.611 591.401L190.813 724.549L165.452 698.872L290.953 574.908C285.428 571.781 280.073 568.456 274.938 564.905C242.105 542.203 216.659 521.005 197.568 490.032C179.848 461.282 169.057 430.986 163.875 397.688C158.171 361.036 157.807 318.266 170.114 282.883C181.368 250.528 204.355 218.008 228.766 194.282C253.856 169.896 283.662 151.186 318.613 145.615ZM678.336 270.189C662.405 270.189 647.741 275.617 636.094 284.724L353.08 564.269C363.877 568.247 374.872 571.6 386 573.64C408.437 577.754 429.211 579.477 452.138 578.632C475.235 577.78 497.807 576.212 519.524 567.401C536.796 560.394 563.881 541.975 578.75 531.43L735.738 376.26L735.818 376.329C742.867 365.548 746.97 352.665 746.97 338.823C746.969 300.918 716.241 270.19 678.336 270.189ZM386.329 172.854C357.494 170.451 326.794 173 299.896 184.299C271.064 196.409 249.237 218.167 231.261 242.95C214.074 266.645 203.235 290.177 197.574 319.042C197.571 319.061 197.57 319.059 197.567 319.078C197.483 319.704 192.097 359.683 195.072 385.209C199.732 425.187 218.515 468.846 246.236 498.766C266.187 520.3 290.83 536.582 317.016 549.165L414.535 452.841C394.473 454.107 375.233 450.005 356.051 441.364C335.347 432.038 309.773 413.609 299.896 392.696C287.417 366.277 281.785 341.299 287.416 314.08C294.007 282.223 314.958 259.75 344.819 247.941C371.899 237.233 404.643 236.482 429.676 252.933C457.046 270.921 472.498 307.338 460.873 339.037C451.674 364.121 432.917 379.369 407.229 385.206C407.219 385.208 407.221 385.208 407.211 385.21C406.881 385.274 379.25 390.59 364.785 382.714C347.023 373.043 339.422 359.515 338.58 339.037C338.021 325.429 339.051 311.497 344.382 298.869C344.612 298.325 345.265 298.109 345.779 298.399L372.887 313.721C373.264 313.935 373.462 314.363 373.377 314.789C370.815 327.615 368.992 346.627 381.008 355.26C393.626 364.325 413.612 349.105 420.94 339.037C432.169 323.611 431.83 305.947 420.94 290.37C409.727 274.329 392.551 269.667 373.521 274.147C356.98 278.041 343.232 284.15 332.341 297.857C310.105 325.844 320.368 373.731 344.819 397.688C362.683 415.19 389.954 424.169 414.701 422.645C444.368 420.819 465.629 406.378 483.335 382.714C495.442 362.902 510.185 352.358 513.613 328.841C517.043 305.313 510.064 274.139 499.558 252.933C486.717 232.494 471.777 216.689 452.138 203.017C431.084 188.362 412.256 175.672 386.329 172.854ZM666.775 306.593C679.181 306.593 689.237 316.649 689.237 329.055C689.237 341.46 679.181 351.516 666.775 351.516C654.37 351.516 644.314 341.46 644.313 329.055C644.313 316.649 654.37 306.593 666.775 306.593Z" fill="#0A3709"/>
</svg>
