<svg xmlns="http://www.w3.org/2000/svg" version="1.1" xmlns:xlink="http://www.w3.org/1999/xlink" xmlns:svgjs="http://svgjs.dev/svgjs" width="1440" height="400" preserveAspectRatio="none" viewBox="0 0 1440 400"><g mask="url(&quot;#SvgjsMask1171&quot;)" fill="none"><path d="M 0,35 C 96,38.4 288,55 480,52 C 672,49 768,10.8 960,20 C 1152,29.2 1344,82.4 1440,98L1440 400L0 400z" fill="rgba(255, 255, 255, 0)"></path><path d="M 0,126 C 28.8,140 86.4,201 144,196 C 201.6,191 230.4,102.6 288,101 C 345.6,99.4 374.4,183.8 432,188 C 489.6,192.2 518.4,129.4 576,122 C 633.6,114.6 662.4,153 720,151 C 777.6,149 806.4,108 864,112 C 921.6,116 950.4,167.2 1008,171 C 1065.6,174.8 1094.4,130.8 1152,131 C 1209.6,131.2 1238.4,173 1296,172 C 1353.6,171 1411.2,135.2 1440,126L1440 400L0 400z" fill="rgba(255, 255, 255, 0)"></path><path d="M 0,214 C 57.6,231.2 172.8,297.4 288,300 C 403.2,302.6 460.8,235.4 576,227 C 691.2,218.6 748.8,260.8 864,258 C 979.2,255.2 1036.8,208.8 1152,213 C 1267.2,217.2 1382.4,265.8 1440,279L1440 400L0 400z" fill="rgba(214, 118, 50, 1)"></path><path d="M 0,329 C 41.2,334 123.6,358.4 206,354 C 288.4,349.6 329.6,299 412,307 C 494.4,315 535.6,386.6 618,394 C 700.4,401.4 741.6,343.8 824,344 C 906.4,344.2 947.6,397.8 1030,395 C 1112.4,392.2 1154,337.2 1236,330 C 1318,322.8 1399.2,353.2 1440,359L1440 400L0 400z" fill="rgba(253, 190, 158, 1)"></path></g><defs><mask id="SvgjsMask1171"><rect width="1440" height="400" fill="#ffffff"></rect></mask></defs></svg>